  0
SECTION
  2
HEADER
  9
$ACADVER
  1
AC1015
  9
$ACADMAINTVER
 70
    20
  9
$DWGCODEPAGE
  3
ANSI_936
  9
$INSBASE
 10
0.0
 20
0.0
 30
0.0
  9
$EXTMIN
 10
-205.1776226918323
 20
-35.5475094138569
 30
0.0
  9
$EXTMAX
 10
91.82237730748767
 20
174.4524905853031
 30
0.0
  9
$LIMMIN
 10
0.0
 20
0.0
  9
$LIMMAX
 10
11.6929133858
 20
8.267716535399999
  9
$ORTHOMODE
 70
     0
  9
$REGENMODE
 70
     1
  9
$FILLMODE
 70
     1
  9
$QTEXTMODE
 70
     0
  9
$MIRRTEXT
 70
     1
  9
$LTSCALE
 40
0.6431102362
  9
$ATTMODE
 70
     1
  9
$TEXTSIZE
 40
0.2
  9
$TRACEWID
 40
0.05
  9
$TEXTSTYLE
  7
STANDARD
  9
$CLAYER
  8
0
  9
$CELTYPE
  6
BYLAYER
  9
$CECOLOR
 62
   256
  9
$CELTSCALE
 40
1.0
  9
$DISPSILH
 70
     0
  9
$DIMSCALE
 40
1.0
  9
$DIMASZ
 40
0.1875
  9
$DIMEXO
 40
0.0730807087
  9
$DIMDLI
 40
0.4443307087
  9
$DIMRND
 40
0.0
  9
$DIMDLE
 40
0.0
  9
$DIMEXE
 40
0.2104724409
  9
$DIMTP
 40
0.0
  9
$DIMTM
 40
0.0
  9
$DIMTXT
 40
0.18
  9
$DIMCEN
 40
0.1052362205
  9
$DIMTSZ
 40
0.0
  9
$DIMTOL
 70
     0
  9
$DIMLIM
 70
     0
  9
$DIMTIH
 70
     1
  9
$DIMTOH
 70
     1
  9
$DIMSE1
 70
     0
  9
$DIMSE2
 70
     0
  9
$DIMTAD
 70
     0
  9
$DIMZIN
 70
     0
  9
$DIMBLK
  1

  9
$DIMASO
 70
     1
  9
$DIMSHO
 70
     1
  9
$DIMPOST
  1

  9
$DIMAPOST
  1

  9
$DIMALT
 70
     0
  9
$DIMALTD
 70
     2
  9
$DIMALTF
 40
25.4
  9
$DIMLFAC
 40
1.0
  9
$DIMTOFL
 70
     0
  9
$DIMTVP
 40
0.0
  9
$DIMTIX
 70
     0
  9
$DIMSOXD
 70
     0
  9
$DIMSAH
 70
     0
  9
$DIMBLK1
  1

  9
$DIMBLK2
  1

  9
$DIMSTYLE
  2
STANDARD
  9
$DIMCLRD
 70
     0
  9
$DIMCLRE
 70
     0
  9
$DIMCLRT
 70
     0
  9
$DIMTFAC
 40
1.0
  9
$DIMGAP
 40
0.09
  9
$DIMJUST
 70
     0
  9
$DIMSD1
 70
     0
  9
$DIMSD2
 70
     0
  9
$DIMTOLJ
 70
     1
  9
$DIMTZIN
 70
     0
  9
$DIMALTZ
 70
     0
  9
$DIMALTTZ
 70
     0
  9
$DIMUPT
 70
     0
  9
$DIMDEC
 70
     4
  9
$DIMTDEC
 70
     4
  9
$DIMALTU
 70
     2
  9
$DIMALTTD
 70
     2
  9
$DIMTXSTY
  7
STANDARD
  9
$DIMAUNIT
 70
     0
  9
$DIMADEC
 70
     0
  9
$DIMALTRND
 40
0.0
  9
$DIMAZIN
 70
     0
  9
$DIMDSEP
 70
    46
  9
$DIMATFIT
 70
     3
  9
$DIMFRAC
 70
     0
  9
$DIMLDRBLK
  1

  9
$DIMLUNIT
 70
     2
  9
$DIMLWD
 70
    -2
  9
$DIMLWE
 70
    -2
  9
$DIMTMOVE
 70
     0
  9
$LUNITS
 70
     2
  9
$LUPREC
 70
     4
  9
$SKETCHINC
 40
0.1
  9
$FILLETRAD
 40
0.0
  9
$AUNITS
 70
     0
  9
$AUPREC
 70
     0
  9
$MENU
  1
acad
  9
$ELEVATION
 40
0.0
  9
$PELEVATION
 40
0.0
  9
$THICKNESS
 40
0.0
  9
$LIMCHECK
 70
     0
  9
$CHAMFERA
 40
0.0
  9
$CHAMFERB
 40
0.0
  9
$CHAMFERC
 40
0.0
  9
$CHAMFERD
 40
0.0
  9
$SKPOLY
 70
     0
  9
$TDCREATE
 40
2444972.333333334
  9
$TDUCREATE
 40
2444972.000000000
  9
$TDUPDATE
 40
2457656.699853380
  9
$TDUUPDATE
 40
2457656.366520046
  9
$TDINDWG
 40
0.0007565972
  9
$TDUSRTIMER
 40
0.0007565972
  9
$USRTIMER
 70
     1
  9
$ANGBASE
 50
0.0
  9
$ANGDIR
 70
     0
  9
$PDMODE
 70
     0
  9
$PDSIZE
 40
0.0
  9
$PLINEWID
 40
0.0
  9
$SPLFRAME
 70
     0
  9
$SPLINETYPE
 70
     6
  9
$SPLINESEGS
 70
     8
  9
$HANDSEED
  5
223
  9
$SURFTAB1
 70
     6
  9
$SURFTAB2
 70
     6
  9
$SURFTYPE
 70
     6
  9
$SURFU
 70
     6
  9
$SURFV
 70
     6
  9
$UCSBASE
  2

  9
$UCSNAME
  2

  9
$UCSORG
 10
0.0
 20
0.0
 30
0.0
  9
$UCSXDIR
 10
1.0
 20
0.0
 30
0.0
  9
$UCSYDIR
 10
0.0
 20
1.0
 30
0.0
  9
$UCSORTHOREF
  2

  9
$UCSORTHOVIEW
 70
     0
  9
$UCSORGTOP
 10
0.0
 20
0.0
 30
0.0
  9
$UCSORGBOTTOM
 10
0.0
 20
0.0
 30
0.0
  9
$UCSORGLEFT
 10
0.0
 20
0.0
 30
0.0
  9
$UCSORGRIGHT
 10
0.0
 20
0.0
 30
0.0
  9
$UCSORGFRONT
 10
0.0
 20
0.0
 30
0.0
  9
$UCSORGBACK
 10
0.0
 20
0.0
 30
0.0
  9
$PUCSBASE
  2

  9
$PUCSNAME
  2

  9
$PUCSORG
 10
0.0
 20
0.0
 30
0.0
  9
$PUCSXDIR
 10
1.0
 20
0.0
 30
0.0
  9
$PUCSYDIR
 10
0.0
 20
1.0
 30
0.0
  9
$PUCSORTHOREF
  2

  9
$PUCSORTHOVIEW
 70
     0
  9
$PUCSORGTOP
 10
0.0
 20
0.0
 30
0.0
  9
$PUCSORGBOTTOM
 10
0.0
 20
0.0
 30
0.0
  9
$PUCSORGLEFT
 10
0.0
 20
0.0
 30
0.0
  9
$PUCSORGRIGHT
 10
0.0
 20
0.0
 30
0.0
  9
$PUCSORGFRONT
 10
0.0
 20
0.0
 30
0.0
  9
$PUCSORGBACK
 10
0.0
 20
0.0
 30
0.0
  9
$USERI1
 70
     0
  9
$USERI2
 70
     0
  9
$USERI3
 70
     0
  9
$USERI4
 70
     0
  9
$USERI5
 70
     0
  9
$USERR1
 40
0.0
  9
$USERR2
 40
0.0
  9
$USERR3
 40
0.0
  9
$USERR4
 40
0.0
  9
$USERR5
 40
2.5
  9
$WORLDVIEW
 70
     1
  9
$SHADEDGE
 70
     3
  9
$SHADEDIF
 70
    70
  9
$TILEMODE
 70
     1
  9
$MAXACTVP
 70
    16
  9
$PINSBASE
 10
0.0
 20
0.0
 30
0.0
  9
$PLIMCHECK
 70
     0
  9
$PEXTMIN
 10
1.000000000000000E+20
 20
1.000000000000000E+20
 30
1.000000000000000E+20
  9
$PEXTMAX
 10
-1.000000000000000E+20
 20
-1.000000000000000E+20
 30
-1.000000000000000E+20
  9
$PLIMMIN
 10
0.0
 20
0.0
  9
$PLIMMAX
 10
12.0
 20
9.0
  9
$UNITMODE
 70
     0
  9
$VISRETAIN
 70
     0
  9
$PLINEGEN
 70
     1
  9
$PSLTSCALE
 70
     0
  9
$TREEDEPTH
 70
  3020
  9
$CMLSTYLE
  2
STANDARD
  9
$CMLJUST
 70
     0
  9
$CMLSCALE
 40
1.0
  9
$PROXYGRAPHICS
 70
     1
  9
$MEASUREMENT
 70
     0
  9
$CELWEIGHT
370
    -1
  9
$ENDCAPS
280
     0
  9
$JOINSTYLE
280
     0
  9
$LWDISPLAY
290
     0
  9
$INSUNITS
 70
     0
  9
$HYPERLINKBASE
  1

  9
$STYLESHEET
  1

  9
$XEDIT
290
     1
  9
$CEPSNTYPE
380
     0
  9
$PSTYLEMODE
290
     1
  9
$FINGERPRINTGUID
  2
{787313D6-409F-4A1E-8D7E-611774E8C38A}
  9
$VERSIONGUID
  2
{53FBF317-DE7E-408E-A7F2-5D0C82E593D0}
  9
$EXTNAMES
290
     1
  9
$PSVPSCALE
 40
0.0
  9
$OLESTARTUP
290
     0
  0
ENDSEC
  0
SECTION
  2
CLASSES
  0
CLASS
  1
IMAGE
  2
AcDbRasterImage
  3
ISM
 90
    34943
280
     0
281
     1
  0
CLASS
  1
DICTIONARYVAR
  2
AcDbDictionaryVar
  3
ObjectDBX Classes
 90
        0
280
     0
281
     0
  0
CLASS
  1
RASTERVARIABLES
  2
AcDbRasterVariables
  3
ISM
 90
    32768
280
     0
281
     0
  0
CLASS
  1
IMAGEDEF
  2
AcDbRasterImageDef
  3
ISM
 90
    32768
280
     0
281
     0
  0
CLASS
  1
IMAGEDEF_REACTOR
  2
AcDbRasterImageDefReactor
  3
ISM
 90
    32769
280
     0
281
     0
  0
CLASS
  1
IDBUFFER
  2
AcDbIdBuffer
  3
ObjectDBX Classes
 90
    32768
280
     0
281
     0
  0
CLASS
  1
SPATIAL_FILTER
  2
AcDbSpatialFilter
  3
ObjectDBX Classes
 90
    32768
280
     0
281
     0
  0
CLASS
  1
SORTENTSTABLE
  2
AcDbSortentsTable
  3
ObjectDBX Classes
 90
    32768
280
     0
281
     0
  0
CLASS
  1
LAYER_INDEX
  2
AcDbLayerIndex
  3
ObjectDBX Classes
 90
    32768
280
     0
281
     0
  0
CLASS
  1
SPATIAL_INDEX
  2
AcDbSpatialIndex
  3
ObjectDBX Classes
 90
    32768
280
     0
281
     0
  0
CLASS
  1
OBJECT_PTR
  2
CAseDLPNTableRecord
  3
ASE-LPNTableRecord
 90
    32769
280
     0
281
     0
  0
CLASS
  1
LAYOUT
  2
AcDbLayout
  3
ObjectDBX Classes
 90
        0
280
     0
281
     0
  0
CLASS
  1
PLOTSETTINGS
  2
AcDbPlotSettings
  3
ObjectDBX Classes
 90
    32768
280
     0
281
     0
  0
CLASS
  1
ACDBDICTIONARYWDFLT
  2
AcDbDictionaryWithDefault
  3
ObjectDBX Classes
 90
        0
280
     0
281
     0
  0
CLASS
  1
ACDBPLACEHOLDER
  2
AcDbPlaceHolder
  3
ObjectDBX Classes
 90
        0
280
     0
281
     0
  0
CLASS
  1
VBA_PROJECT
  2
AcDbVbaProject
  3
acad
 90
    32768
280
     0
281
     0
  0
CLASS
  1
WIPEOUT
  2
AcDbWipeout
  3
"WipeOut|Product Desc: Object Enabler for WipeOut entity                        |Company: Autodesk, Inc.                        |WEB Address: www.autodesk.com"
 90
    34943
280
     0
281
     1
  0
CLASS
  1
WIPEOUTVARIABLES
  2
AcDbWipeoutVariables
  3
"WipeOut|Product Desc:     WipeOut Dbx Application|Company:          Autodesk, Inc.|WEB Address:      www.autodesk.com"
 90
    32768
280
     0
281
     0
  0
CLASS
  1
RTEXT
  2
RText
  3
RText|AutoCAD Express Tool|expresstools@autodesk.com
 90
    32768
280
     0
281
     1
  0
CLASS
  1
ARCALIGNEDTEXT
  2
AcDbArcAlignedText
  3
ATEXT|AutoCAD Express Tool|expresstools@autodesk.com
 90
    32768
280
     0
281
     1
  0
CLASS
  1
MATERIAL
  2
AcDbMaterial
  3
ObjectDBX Classes
 90
     1024
280
     0
281
     0
  0
CLASS
  1
VISUALSTYLE
  2
AcDbVisualStyle
  3
ObjectDBX Classes
 90
     4095
280
     0
281
     0
  0
CLASS
  1
TABLESTYLE
  2
AcDbTableStyle
  3
ObjectDBX Classes
 90
     4095
280
     0
281
     0
  0
CLASS
  1
VLO-VL
  2
vlo_VL
  3
VL|AutoLISP based application
 90
      129
280
     0
281
     0
  0
ENDSEC
  0
SECTION
  2
TABLES
  0
TABLE
  2
VPORT
  5
6
330
0
100
AcDbSymbolTable
 70
     1
  0
VPORT
  5
18
330
6
100
AcDbSymbolTableRecord
100
AcDbViewportTableRecord
  2
*ACTIVE
 70
     0
 10
0.0
 20
0.0
 11
1.0
 21
1.0
 12
34.52796930298769
 22
80.56824169720078
 13
0.0
 23
0.0
 14
1.0
 24
1.0
 15
0.0
 25
0.0
 16
0.0
 26
0.0
 36
1.0
 17
0.0
 27
0.0
 37
0.0
 40
325.4882172905754
 41
2.618155619596541
 42
50.0
 43
0.0
 44
0.0
 50
0.0
 51
0.0
 71
     0
 72
   100
 73
     1
 74
     1
 75
     0
 76
     0
 77
     0
 78
     0
281
     0
 65
     1
110
0.0
120
0.0
130
0.0
111
1.0
121
0.0
131
0.0
112
0.0
122
1.0
132
0.0
 79
     0
146
0.0
  0
ENDTAB
  0
TABLE
  2
LTYPE
  5
3
330
0
100
AcDbSymbolTable
 70
     6
  0
LTYPE
  5
C
330
3
100
AcDbSymbolTableRecord
100
AcDbLinetypeTableRecord
  2
BYBLOCK
 70
     0
  3

 72
    65
 73
     0
 40
0.0
  0
LTYPE
  5
D
330
3
100
AcDbSymbolTableRecord
100
AcDbLinetypeTableRecord
  2
BYLAYER
 70
     0
  3

 72
    65
 73
     0
 40
0.0
  0
LTYPE
  5
E
330
3
100
AcDbSymbolTableRecord
100
AcDbLinetypeTableRecord
  2
CONTINUOUS
 70
     0
  3
Solid line
 72
    65
 73
     0
 40
0.0
  0
LTYPE
  5
F
330
3
100
AcDbSymbolTableRecord
100
AcDbLinetypeTableRecord
  2
CENTER
 70
     0
  3
____ _ ____ _ ____ _ ____ _ ____ _ ____ _ ____
 72
    65
 73
     4
 40
0.6
 49
0.375
 74
     0
 49
-0.075
 74
     0
 49
0.075
 74
     0
 49
-0.075
 74
     0
  0
LTYPE
  5
10
330
3
100
AcDbSymbolTableRecord
100
AcDbLinetypeTableRecord
  2
HIDDEN
 70
     0
  3
- - - - - - - - - - - - - - - - - - - -
 72
    65
 73
     2
 40
0.2
 49
0.1
 74
     0
 49
-0.1
 74
     0
  0
LTYPE
  5
11
330
3
100
AcDbSymbolTableRecord
100
AcDbLinetypeTableRecord
  2
PHANTOM
 70
     0
  3
_____ _ _ _____ _ _ _____ _ _ _____
 72
    65
 73
     6
 40
0.8
 49
0.45
 74
     0
 49
-0.05
 74
     0
 49
0.1
 74
     0
 49
-0.05
 74
     0
 49
0.1
 74
     0
 49
-0.05
 74
     0
  0
LTYPE
  5
12
330
3
100
AcDbSymbolTableRecord
100
AcDbLinetypeTableRecord
  2
DOT
 70
     0
  3
. . . . . . . . . . . . . . . . . . . .
 72
    65
 73
     2
 40
0.2
 49
0.1
 74
     0
 49
-0.1
 74
     0
  0
LTYPE
  5
13
330
3
100
AcDbSymbolTableRecord
100
AcDbLinetypeTableRecord
  2
DASHED
 70
     0
  3
- - - - - - - - - - - - - - - - - - - -
 72
    65
 73
     2
 40
0.2
 49
0.1
 74
     0
 49
-0.1
 74
     0
  0
ENDTAB
  0
TABLE
  2
LAYER
  5
1
330
0
100
AcDbSymbolTable
 70
     4
  0
LAYER
  5
14
330
1
100
AcDbSymbolTableRecord
100
AcDbLayerTableRecord
  2
0
 70
     0
 62
     7
  6
CONTINUOUS
370
    -3
390
1E4
  0
LAYER
  5
15
330
1
100
AcDbSymbolTableRecord
100
AcDbLayerTableRecord
  2
DEFAULT_1
 70
     0
 62
     7
  6
CENTER
370
    -3
390
1E4
  0
LAYER
  5
16
330
1
100
AcDbSymbolTableRecord
100
AcDbLayerTableRecord
  2
DEFAULT_2
 70
     0
 62
     8
  6
HIDDEN
370
    -3
390
1E4
  0
LAYER
  5
17
330
1
100
AcDbSymbolTableRecord
100
AcDbLayerTableRecord
  2
DEFAULT_3
 70
     0
 62
     7
  6
PHANTOM
370
    -3
390
1E4
  0
ENDTAB
  0
TABLE
  2
STYLE
  5
2
330
0
100
AcDbSymbolTable
 70
     1
  0
STYLE
  5
1A
330
2
100
AcDbSymbolTableRecord
100
AcDbTextStyleTableRecord
  2
STANDARD
 70
     0
 40
0.0
 41
1.0
 50
0.0
 71
     0
 42
0.2
  3
txt
  4

  0
ENDTAB
  0
TABLE
  2
VIEW
  5
4
330
0
100
AcDbSymbolTable
 70
     0
  0
ENDTAB
  0
TABLE
  2
UCS
  5
5
330
0
100
AcDbSymbolTable
 70
     0
  0
ENDTAB
  0
TABLE
  2
APPID
  5
7
330
0
100
AcDbSymbolTable
 70
     2
  0
APPID
  5
19
330
7
100
AcDbSymbolTableRecord
100
AcDbRegAppTableRecord
  2
ACAD
 70
     0
  0
APPID
  5
20A
330
7
100
AcDbSymbolTableRecord
100
AcDbRegAppTableRecord
  2
DCO15
 70
     0
  0
ENDTAB
  0
TABLE
  2
DIMSTYLE
  5
8
330
0
100
AcDbSymbolTable
 70
     1
100
AcDbDimStyleTable
 71
     0
  0
DIMSTYLE
105
22
330
8
100
AcDbSymbolTableRecord
100
AcDbDimStyleTableRecord
  2
STANDARD
 70
     0
 47
0.01
 48
0.01
140
0.15625
289
     0
340
1A
  0
ENDTAB
  0
TABLE
  2
BLOCK_RECORD
  5
1D
330
0
100
AcDbSymbolTable
 70
     0
  0
BLOCK_RECORD
  5
1B
330
1D
100
AcDbSymbolTableRecord
100
AcDbBlockTableRecord
  2
*MODEL_SPACE
340
200
  0
BLOCK_RECORD
  5
1C
330
1D
100
AcDbSymbolTableRecord
100
AcDbBlockTableRecord
  2
*PAPER_SPACE
340
201
  0
ENDTAB
  0
ENDSEC
  0
SECTION
  2
BLOCKS
  0
BLOCK
  5
1E
330
1B
100
AcDbEntity
  8
0
100
AcDbBlockBegin
  2
*MODEL_SPACE
 70
     0
 10
0.0
 20
0.0
 30
0.0
  3
*MODEL_SPACE
  1

  0
ENDBLK
  5
1F
330
1B
100
AcDbEntity
  8
0
100
AcDbBlockEnd
  0
BLOCK
  5
20
330
1C
100
AcDbEntity
 67
     1
  8
0
100
AcDbBlockBegin
  2
*PAPER_SPACE
 70
     0
 10
0.0
 20
0.0
 30
0.0
  3
*PAPER_SPACE
  1

  0
ENDBLK
  5
21
330
1C
100
AcDbEntity
 67
     1
  8
0
100
AcDbBlockEnd
  0
ENDSEC
  0
SECTION
  2
ENTITIES
  0
LINE
  5
23
330
1B
100
AcDbEntity
  8
0
  6
Continuous
 62
     7
100
AcDbLine
 10
-205.1776226918323
 20
-35.5475094138569
 30
0.0
 11
-205.1776226918323
 21
174.4524905853031
 31
0.0
  0
LINE
  5
24
330
1B
100
AcDbEntity
  8
0
  6
Continuous
 62
     7
100
AcDbLine
 10
-205.1776226918323
 20
-35.5475094138569
 30
0.0
 11
91.82237730748767
 21
-35.5475094138569
 31
0.0
  0
LINE
  5
25
330
1B
100
AcDbEntity
  8
0
  6
Continuous
 62
     7
100
AcDbLine
 10
-205.1776226918323
 20
174.4524905853031
 30
0.0
 11
91.82237730748767
 21
174.4524905853031
 31
0.0
  0
LINE
  5
26
330
1B
100
AcDbEntity
  8
0
  6
Continuous
 62
     7
100
AcDbLine
 10
91.82237730748767
 20
-35.5475094138569
 30
0.0
 11
91.82237730748767
 21
174.4524905853031
 31
0.0
  0
LINE
  5
27
330
1B
100
AcDbEntity
  8
0
  6
Continuous
 62
     7
100
AcDbLine
 10
-79.97234023269232
 20
22.2041211177031
 30
0.0
 11
-79.97234023269232
 21
29.7041211189431
 31
0.0
  0
LINE
  5
28
330
1B
100
AcDbEntity
  8
0
  6
Continuous
 62
     7
100
AcDbLine
 10
-60.37234023287232
 20
20.4041211185231
 30
0.0
 11
-52.57234023219232
 21
20.4041211185231
 31
0.0
  0
LINE
  5
29
330
1B
100
AcDbEntity
  8
0
  6
Continuous
 62
     7
100
AcDbLine
 10
-60.37234023287232
 20
20.7041211179631
 30
0.0
 11
-78.47234023295232
 21
20.7041211179631
 31
0.0
  0
LINE
  5
2A
330
1B
100
AcDbEntity
  8
0
  6
Continuous
 62
     7
100
AcDbLine
 10
-52.57234023219232
 20
20.7041211179631
 30
0.0
 11
-34.47234023211232
 21
20.7041211179631
 31
0.0
  0
LINE
  5
2B
330
1B
100
AcDbEntity
  8
0
  6
Continuous
 62
     7
100
AcDbLine
 10
-60.37234023287232
 20
26.70412111946311
 30
0.0
 11
-60.37234023287232
 21
20.4041211185231
 31
0.0
  0
LINE
  5
2C
330
1B
100
AcDbEntity
  8
0
  6
Continuous
 62
     7
100
AcDbLine
 10
-60.37234023287232
 20
26.70412111946311
 30
0.0
 11
-52.57234023219232
 21
26.70412111946311
 31
0.0
  0
LINE
  5
2D
330
1B
100
AcDbEntity
  8
0
  6
Continuous
 62
     7
100
AcDbLine
 10
-52.57234023219232
 20
26.70412111946311
 30
0.0
 11
-52.57234023219232
 21
20.4041211185231
 31
0.0
  0
LINE
  5
2E
330
1B
100
AcDbEntity
  8
0
  6
Continuous
 62
     7
100
AcDbLine
 10
-34.47234023211232
 20
31.20412111868311
 30
0.0
 11
-78.47234023295232
 21
31.20412111868311
 31
0.0
  0
LINE
  5
2F
330
1B
100
AcDbEntity
  8
0
  6
Continuous
 62
     7
100
AcDbLine
 10
-32.97234023237232
 20
22.2041211177031
 30
0.0
 11
-32.97234023237232
 21
29.7041211189431
 31
0.0
  0
LINE
  5
30
330
1B
100
AcDbEntity
  8
0
  6
Continuous
 62
     7
100
AcDbLine
 10
-79.97234023269232
 20
78.95706735504311
 30
0.0
 11
-79.97234023269232
 21
77.45706735530308
 31
0.0
  0
LINE
  5
31
330
1B
100
AcDbEntity
  8
0
  6
Continuous
 62
     7
100
AcDbLine
 10
-78.47234023295232
 20
78.95706735504311
 30
0.0
 11
-78.47234023295232
 21
77.45706735530308
 31
0.0
  0
LINE
  5
32
330
1B
100
AcDbEntity
  8
0
  6
Continuous
 62
     7
100
AcDbLine
 10
-60.37234023287232
 20
74.6570673546031
 30
0.0
 11
-60.37234023287232
 21
76.1570673543431
 31
0.0
  0
LINE
  5
33
330
1B
100
AcDbEntity
  8
0
  6
Continuous
 62
     7
100
AcDbLine
 10
-60.1723402340923
 20
78.95706735504311
 30
0.0
 11
-60.1723402340923
 21
82.3570673546231
 31
0.0
  0
LINE
  5
34
330
1B
100
AcDbEntity
  8
0
  6
Continuous
 62
     7
100
AcDbLine
 10
-60.37234023287232
 20
74.6570673546031
 30
0.0
 11
-52.57234023219232
 21
74.6570673546031
 31
0.0
  0
LINE
  5
35
330
1B
100
AcDbEntity
  8
0
  6
Continuous
 62
     7
100
AcDbLine
 10
-60.37234023287232
 20
76.1570673543431
 30
0.0
 11
-59.07234023191233
 21
77.45706735530308
 31
0.0
  0
LINE
  5
36
330
1B
100
AcDbEntity
  8
0
  6
Continuous
 62
     7
100
AcDbLine
 10
-79.97234023269232
 20
77.45706735530308
 30
0.0
 11
-32.97234023237232
 21
77.45706735530308
 31
0.0
  0
LINE
  5
37
330
1B
100
AcDbEntity
  8
0
  6
Continuous
 62
     7
100
AcDbLine
 10
-79.97234023269232
 20
78.95706735504311
 30
0.0
 11
-32.97234023237232
 21
78.95706735504311
 31
0.0
  0
LINE
  5
38
330
1B
100
AcDbEntity
  8
0
  6
Continuous
 62
     7
100
AcDbLine
 10
-52.57234023219232
 20
76.1570673543431
 30
0.0
 11
-53.8723402331523
 21
77.45706735530308
 31
0.0
  0
LINE
  5
39
330
1B
100
AcDbEntity
  8
0
  6
Continuous
 62
     7
100
AcDbLine
 10
-52.77234023351232
 20
78.95706735504311
 30
0.0
 11
-52.77234023351232
 21
82.3570673546231
 31
0.0
  0
LINE
  5
3A
330
1B
100
AcDbEntity
  8
0
  6
Continuous
 62
     7
100
AcDbLine
 10
-52.57234023219232
 20
74.6570673546031
 30
0.0
 11
-52.57234023219232
 21
76.1570673543431
 31
0.0
  0
LINE
  5
3B
330
1B
100
AcDbEntity
  8
0
  6
Continuous
 62
     7
100
AcDbLine
 10
-60.1723402340923
 20
82.3570673546231
 30
0.0
 11
-52.77234023351232
 21
82.3570673546231
 31
0.0
  0
LINE
  5
3C
330
1B
100
AcDbEntity
  8
0
  6
Continuous
 62
     7
100
AcDbLine
 10
-34.47234023211232
 20
78.95706735504311
 30
0.0
 11
-34.47234023211232
 21
77.45706735530308
 31
0.0
  0
LINE
  5
3D
330
1B
100
AcDbEntity
  8
0
  6
Continuous
 62
     7
100
AcDbLine
 10
-32.97234023237232
 20
78.95706735504311
 30
0.0
 11
-32.97234023237232
 21
77.45706735530308
 31
0.0
  0
LINE
  5
3E
330
1B
100
AcDbEntity
  8
0
  6
Continuous
 62
     7
100
AcDbLine
 10
-79.97234023269232
 20
140.7068467356031
 30
0.0
 11
-79.97234023269232
 21
133.2068467343631
 31
0.0
  0
LINE
  5
3F
330
1B
100
AcDbEntity
  8
0
  6
Continuous
 62
     7
100
AcDbLine
 10
-78.47234023295232
 20
131.7068467346231
 30
0.0
 11
-34.47234023211232
 21
131.7068467346231
 31
0.0
  0
LINE
  5
40
330
1B
100
AcDbEntity
  8
0
  6
Continuous
 62
     7
100
AcDbLine
 10
-60.37234023287232
 20
142.2068467353431
 30
0.0
 11
-60.37234023287232
 21
142.5068467347831
 31
0.0
  0
LINE
  5
41
330
1B
100
AcDbEntity
  8
0
  6
Continuous
 62
     7
100
AcDbLine
 10
-60.1723402340923
 20
140.6068467349431
 30
0.0
 11
-60.1723402340923
 21
136.2068467338431
 31
0.0
  0
LINE
  5
42
330
1B
100
AcDbEntity
  8
0
  6
Continuous
 62
     7
100
AcDbLine
 10
-59.07234023191233
 20
142.2068467353431
 30
0.0
 11
-59.07234023191233
 21
142.5068467347831
 31
0.0
  0
LINE
  5
43
330
1B
100
AcDbEntity
  8
0
  6
Continuous
 62
     7
100
AcDbLine
 10
-60.1723402340923
 20
136.2068467338431
 30
0.0
 11
-52.77234023351232
 21
136.2068467338431
 31
0.0
  0
LINE
  5
44
330
1B
100
AcDbEntity
  8
0
  6
Continuous
 62
     7
100
AcDbLine
 10
-53.8723402331523
 20
142.2068467353431
 30
0.0
 11
-53.8723402331523
 21
142.5068467347831
 31
0.0
  0
LINE
  5
45
330
1B
100
AcDbEntity
  8
0
  6
Continuous
 62
     7
100
AcDbLine
 10
-52.77234023351232
 20
136.2068467338431
 30
0.0
 11
-52.77234023351232
 21
140.6068467349431
 31
0.0
  0
LINE
  5
46
330
1B
100
AcDbEntity
  8
0
  6
Continuous
 62
     7
100
AcDbLine
 10
-52.57234023219232
 20
142.2068467353431
 30
0.0
 11
-52.57234023219232
 21
142.5068467347831
 31
0.0
  0
LINE
  5
47
330
1B
100
AcDbEntity
  8
0
  6
Continuous
 62
     7
100
AcDbLine
 10
-52.77234023351232
 20
140.6068467349431
 30
0.0
 11
-60.1723402340923
 21
140.6068467349431
 31
0.0
  0
LINE
  5
48
330
1B
100
AcDbEntity
  8
0
  6
Continuous
 62
     7
100
AcDbLine
 10
-34.47234023211232
 20
142.2068467353431
 30
0.0
 11
-78.47234023295232
 21
142.2068467353431
 31
0.0
  0
LINE
  5
49
330
1B
100
AcDbEntity
  8
0
  6
Continuous
 62
     7
100
AcDbLine
 10
-60.37234023287232
 20
142.5068467347831
 30
0.0
 11
-52.57234023219232
 21
142.5068467347831
 31
0.0
  0
LINE
  5
4A
330
1B
100
AcDbEntity
  8
0
  6
Continuous
 62
     7
100
AcDbLine
 10
-32.97234023237232
 20
140.7068467356031
 30
0.0
 11
-32.97234023237232
 21
133.2068467343631
 31
0.0
  0
LWPOLYLINE
  5
4B
330
1B
100
AcDbEntity
  8
0
  6
Continuous
 62
     7
100
AcDbPolyline
 90
        9
 70
     0
 43
0.0
 10
35.81994718912765
 20
97.53140989132312
 10
36.09519993046769
 20
97.55378500532311
 10
36.37640451410766
 20
97.62088433772309
 10
36.64757311070764
 20
97.7288815842631
 10
36.9032842985477
 20
97.87559365812311
 10
37.13107300476767
 20
98.05452681308313
 10
37.32053403808766
 20
98.25677028210311
 10
37.46783599646767
 20
98.47824398190311
 10
37.56463816506769
 20
98.70640025660311
  0
LINE
  5
56
330
1B
100
AcDbEntity
  8
0
  6
Continuous
 62
     7
100
AcDbLine
 10
28.91198973506766
 20
97.53140989132312
 30
0.0
 11
35.81994718912765
 21
97.53140989132312
 31
0.0
  0
LWPOLYLINE
  5
57
330
1B
100
AcDbEntity
  8
0
  6
Continuous
 62
     7
100
AcDbPolyline
 90
        6
 70
     0
 43
0.0
 10
28.45442693416766
 20
98.4638248438631
 10
28.19306450286766
 20
98.48618904602311
 10
27.9533743599477
 20
98.5532576368031
 10
27.74893746122766
 20
98.66123484274311
 10
27.5838757187077
 20
98.80793449854312
 10
27.47089885042766
 20
98.97809241832312
  0
LINE
  5
5F
330
1B
100
AcDbEntity
  8
0
  6
Continuous
 62
     7
100
AcDbLine
 10
28.45442693416766
 20
98.4638248438631
 30
0.0
 11
35.36238438822767
 21
98.4638248438631
 31
0.0
  0
LWPOLYLINE
  5
60
330
1B
100
AcDbEntity
  8
0
  6
Continuous
 62
     7
100
AcDbPolyline
 90
        6
 70
     0
 43
0.0
 10
27.9284616513277
 20
98.04567746578312
 10
28.04143851960768
 20
97.87551954600312
 10
28.20650026212769
 20
97.72881989020312
 10
28.41093716084768
 20
97.6208426842631
 10
28.65062730376769
 20
97.5537740934831
 10
28.91198973506766
 20
97.53140989132312
  0
LINE
  5
68
330
1B
100
AcDbEntity
  8
0
  6
Continuous
 62
     7
100
AcDbLine
 10
27.47092893926765
 20
98.97800114342311
 30
0.0
 11
27.92849174016769
 21
98.04558619088309
 31
0.0
  0
LINE
  5
69
330
1B
100
AcDbEntity
  8
0
  6
Continuous
 62
     7
100
AcDbLine
 10
28.91198973506766
 20
97.53140989132312
 30
0.0
 11
28.45442693416766
 21
98.4638248438631
 31
0.0
  0
LWPOLYLINE
  5
6A
330
1B
100
AcDbEntity
  8
0
  6
Continuous
 62
     7
100
AcDbPolyline
 90
        4
 70
     0
 43
0.0
 10
27.47089885042766
 20
98.97809241832312
 10
27.40216461654768
 20
99.18908468112309
 10
27.39172165292766
 20
99.41060380882312
 10
27.43593492746766
 20
99.63881520914311
  0
LINE
  5
70
330
1B
100
AcDbEntity
  8
0
  6
Continuous
 62
     7
100
AcDbLine
 10
35.81994718912765
 20
97.53140989132312
 30
0.0
 11
35.36238438822767
 21
98.4638248438631
 31
0.0
  0
LWPOLYLINE
  5
71
330
1B
100
AcDbEntity
  8
0
  6
Continuous
 62
     7
100
AcDbPolyline
 90
        4
 70
     0
 43
0.0
 10
32.26219848294767
 20
103.1760179772431
 10
32.18833059410767
 20
103.3895496355231
 10
32.16842663848769
 20
103.6621032712631
 10
32.22127843524769
 20
103.9471132117831
  0
LINE
  5
77
330
1B
100
AcDbEntity
  8
0
  6
Continuous
 62
     7
100
AcDbLine
 10
37.56463816506769
 20
98.70640025660311
 30
0.0
 11
37.10707536416766
 21
99.63881520914311
 31
0.0
  0
LINE
  5
78
330
1B
100
AcDbEntity
  8
0
  6
Continuous
 62
     7
100
AcDbLine
 10
32.57501717912766
 20
121.6674900772831
 30
0.0
 11
30.68689985808766
 21
115.5575401839231
 31
0.0
  0
LINE
  5
79
330
1B
100
AcDbEntity
  8
0
  6
Continuous
 62
     7
100
AcDbLine
 10
30.68689985808766
 20
115.5575401839231
 30
0.0
 11
31.14446265644768
 21
114.6251252313831
 31
0.0
  0
LWPOLYLINE
  5
7A
330
1B
100
AcDbEntity
  8
0
  6
Continuous
 62
     7
100
AcDbPolyline
 90
        4
 70
     0
 43
0.0
 10
35.40407186644765
 20
104.7182084437831
 10
35.47793975274769
 20
104.5046767855031
 10
35.49784370836767
 20
104.2321231497631
 10
35.44499191414769
 20
103.9471132117831
  0
LINE
  5
80
330
1B
100
AcDbEntity
  8
0
  6
Continuous
 62
     7
100
AcDbLine
 10
32.06705499210767
 20
114.6251252313831
 30
0.0
 11
27.43593492746766
 21
99.63881520914311
 31
0.0
  0
LINE
  5
81
330
1B
100
AcDbEntity
  8
0
  6
Continuous
 62
     7
100
AcDbLine
 10
34.24331032970767
 20
121.6674900772831
 30
0.0
 11
38.08685315822766
 21
134.1051992302631
 31
0.0
  0
LINE
  5
82
330
1B
100
AcDbEntity
  8
0
  6
Continuous
 62
     7
100
AcDbLine
 10
32.6351663019077
 20
102.7791757102231
 30
0.0
 11
32.67884123360767
 21
103.0146982592431
 31
0.0
  0
LINE
  5
83
330
1B
100
AcDbEntity
  8
0
  6
Continuous
 62
     7
100
AcDbLine
 10
36.94714691846767
 20
114.6251252313831
 30
0.0
 11
31.14446265644768
 21
114.6251252313831
 31
0.0
  0
LINE
  5
84
330
1B
100
AcDbEntity
  8
0
  6
Continuous
 62
     7
100
AcDbLine
 10
36.48958412010768
 20
115.5575401839231
 30
0.0
 11
36.94714691846767
 21
114.6251252313831
 31
0.0
  0
LWPOLYLINE
  5
85
330
1B
100
AcDbEntity
  8
0
  6
Continuous
 62
     7
100
AcDbPolyline
 90
        4
 70
     0
 43
0.0
 10
40.20946710704769
 20
129.7969012276231
 10
40.15661531028769
 20
129.5118912896431
 10
40.1765192659077
 20
129.2393376539031
 10
40.25038715474766
 20
129.0258059956231
  0
LINE
  5
8B
330
1B
100
AcDbEntity
  8
0
  6
Continuous
 62
     7
100
AcDbLine
 10
38.37770144114768
 20
121.6674900772831
 30
0.0
 11
36.48958412010768
 21
115.5575401839231
 31
0.0
  0
LINE
  5
8C
330
1B
100
AcDbEntity
  8
0
  6
Continuous
 62
     7
100
AcDbLine
 10
38.91713244762769
 20
118.9086571850031
 30
0.0
 11
37.65838756608767
 21
114.8353572544031
 31
0.0
  0
LWPOLYLINE
  5
8D
330
1B
100
AcDbEntity
  8
0
  6
Continuous
 62
     7
100
AcDbPolyline
 90
       14
 70
     0
 43
0.0
 10
32.22127843524769
 20
103.9471132117831
 10
32.34457610330768
 20
104.2321231497631
 10
32.53293094884765
 20
104.5046767855031
 10
32.77811095632768
 20
104.7528622200431
 10
33.06940058456769
 20
104.9658325561031
 10
33.39406907924769
 20
105.1342799662231
 10
33.73792687006767
 20
105.2508424940831
 10
34.08594571936769
 20
105.3104257963031
 10
34.42291553564766
 20
105.3104257963031
 10
34.73410911950765
 20
105.2508424940831
 10
35.00592581742768
 20
105.1342799662231
 10
35.22648593764771
 20
104.9658325561031
 10
35.38614994394769
 20
104.7528622200431
 10
35.40407186644765
 20
104.7182084437831
  0
LINE
  5
9D
330
1B
100
AcDbEntity
  8
0
  6
Continuous
 62
     7
100
AcDbLine
 10
36.48958412010768
 20
115.5575401839231
 30
0.0
 11
30.68689985808766
 21
115.5575401839231
 31
0.0
  0
LINE
  5
9E
330
1B
100
AcDbEntity
  8
0
  6
Continuous
 62
     7
100
AcDbLine
 10
38.83526424204769
 20
120.7350751272831
 30
0.0
 11
38.91713244762769
 21
118.9086571850031
 31
0.0
  0
LINE
  5
9F
330
1B
100
AcDbEntity
  8
0
  6
Continuous
 62
     7
100
AcDbLine
 10
40.66702990794766
 20
128.8644862750831
 30
0.0
 11
40.62335497624767
 21
128.6289637286031
 31
0.0
  0
LWPOLYLINE
  5
A0
330
1B
100
AcDbEntity
  8
0
  6
Continuous
 62
     7
100
AcDbPolyline
 90
       12
 70
     0
 43
0.0
 10
32.67884123360767
 20
103.0146982592431
 10
32.80213890420768
 20
103.2997081972231
 10
32.9904937472077
 20
103.5722618355031
 10
33.23567375468767
 20
103.8204472675031
 10
33.52696338292768
 20
104.0334176035631
 10
33.85163187760767
 20
104.2018650136831
 10
34.19548966842766
 20
104.3184275415431
 10
34.54350851772768
 20
104.3780108437631
 10
34.8804783340077
 20
104.3780108437631
 10
35.19167191786769
 20
104.3184275415431
 10
35.46348861832766
 20
104.2018650136831
 10
35.48866684584766
 20
104.1826357582631
  0
LINE
  5
AE
330
1B
100
AcDbEntity
  8
0
  6
Continuous
 62
     7
100
AcDbLine
 10
36.94714691846767
 20
114.6251252313831
 30
0.0
 11
37.65838756608767
 21
114.8353572544031
 31
0.0
  0
LWPOLYLINE
  5
AF
330
1B
100
AcDbEntity
  8
0
  6
Continuous
 62
     7
100
AcDbPolyline
 90
        4
 70
     0
 43
0.0
 10
43.43318058594769
 20
129.7969012276231
 10
43.4860323801677
 20
130.0819111681431
 10
43.46612842454769
 20
130.3544648038831
 10
43.39226053824768
 20
130.5679964621631
  0
LWPOLYLINE
  5
B5
330
1B
100
AcDbEntity
  8
0
  6
Continuous
 62
     7
100
AcDbPolyline
 90
       14
 70
     0
 43
0.0
 10
35.44499191414769
 20
103.9471132117831
 10
35.32169424354768
 20
103.6621032712631
 10
35.13333940054767
 20
103.3895496355231
 10
34.88815939306767
 20
103.1413642009831
 10
34.59686976482769
 20
102.9283938674631
 10
34.27220127014766
 20
102.7599464548031
 10
33.92834347932768
 20
102.6433839269431
 10
33.58032463002766
 20
102.5838006247231
 10
33.24335481374766
 20
102.5838006247231
 10
32.93216122988767
 20
102.6433839269431
 10
32.66034452942771
 20
102.7599464548031
 10
32.43978440920768
 20
102.9283938674631
 10
32.28012040290767
 20
103.1413642009831
 10
32.26219848294767
 20
103.1760179772431
  0
LINE
  5
C5
330
1B
100
AcDbEntity
  8
0
  6
Continuous
 62
     7
100
AcDbLine
 10
38.37770144114768
 20
121.6674900772831
 30
0.0
 11
38.83526424204769
 21
120.7350751272831
 31
0.0
  0
LINE
  5
C6
330
1B
100
AcDbEntity
  8
0
  6
Continuous
 62
     7
100
AcDbLine
 10
37.10707536416766
 20
99.63881520914311
 30
0.0
 11
47.75799359492768
 21
134.1051992302631
 31
0.0
  0
LINE
  5
C7
330
1B
100
AcDbEntity
  8
0
  6
Continuous
 62
     7
100
AcDbLine
 10
48.21555639582766
 20
133.1727842802631
 30
0.0
 11
37.56463816506769
 21
98.70640025660311
 31
0.0
  0
LWPOLYLINE
  5
C8
330
1B
100
AcDbEntity
  8
0
  6
Continuous
 62
     7
100
AcDbPolyline
 90
        9
 70
     0
 43
0.0
 10
37.10707536416766
 20
99.63881520914311
 10
37.01027319556769
 20
99.4106589344431
 10
36.86297123972767
 20
99.18918523464311
 10
36.67351020640769
 20
98.9869417656231
 10
36.44572150018766
 20
98.80800861066312
 10
36.19001031234768
 20
98.66129653680312
 10
35.91884171320768
 20
98.55329929026311
 10
35.63763712956768
 20
98.48619995786311
 10
35.36238438822767
 20
98.4638248438631
  0
LINE
  5
D3
330
1B
100
AcDbEntity
  8
0
  6
Continuous
 62
     7
100
AcDbLine
 10
38.37770144114768
 20
121.6674900772831
 30
0.0
 11
32.57501717912766
 21
121.6674900772831
 31
0.0
  0
LWPOLYLINE
  5
D4
330
1B
100
AcDbEntity
  8
0
  6
Continuous
 62
     7
100
AcDbPolyline
 90
        4
 70
     0
 43
0.0
 10
47.75799359492768
 20
134.1051992302631
 10
47.80220266830767
 20
134.3333555049631
 10
47.79178181030767
 20
134.5548292047631
 10
47.72302994120764
 20
134.7659210127031
  0
LWPOLYLINE
  5
DA
330
1B
100
AcDbEntity
  8
0
  6
Continuous
 62
     7
100
AcDbPolyline
 90
       14
 70
     0
 43
0.0
 10
40.25038715474766
 20
129.0258059956231
 10
40.26830907470767
 20
128.9911522193631
 10
40.42797308100768
 20
128.7781818833031
 10
40.64853320122765
 20
128.6097344731831
 10
40.92034990168767
 20
128.4931719453231
 10
41.23154348554765
 20
128.4335886431031
 10
41.56851330182769
 20
128.4335886431031
 10
41.91653215112768
 20
128.4931719453231
 10
42.26038994194769
 20
128.6097344731831
 10
42.58505843662769
 20
128.7781818833031
 10
42.8763480648677
 20
128.9911522193631
 10
43.12152807234767
 20
129.2393376539031
 10
43.30988291534768
 20
129.5118912896431
 10
43.43318058594769
 20
129.7969012276231
  0
LWPOLYLINE
  5
EA
330
1B
100
AcDbEntity
  8
0
  6
Continuous
 62
     7
100
AcDbPolyline
 90
       14
 70
     0
 43
0.0
 10
43.39226053824768
 20
130.5679964621631
 10
43.37433861828765
 20
130.6026502384231
 10
43.21467461198764
 20
130.8156205719431
 10
42.99411449176767
 20
130.9840679846031
 10
42.72229779130765
 20
131.1006305124631
 10
42.41110420744766
 20
131.1602138146831
 10
42.07413439116765
 20
131.1602138146831
 10
41.7261155418677
 20
131.1006305124631
 10
41.38225775104766
 20
130.9840679846031
 10
41.05758925636769
 20
130.8156205719431
 10
40.76629962812768
 20
130.6026502384231
 10
40.52111962064765
 20
130.3544648038831
 10
40.3327647751077
 20
130.0819111681431
 10
40.20946710704769
 20
129.7969012276231
  0
LWPOLYLINE
  5
FA
330
1B
100
AcDbEntity
  8
0
  6
Continuous
 62
     7
100
AcDbPolyline
 90
       12
 70
     0
 43
0.0
 10
43.47685551764766
 20
130.0324237766431
 10
43.45167729012766
 20
130.0516530320631
 10
43.17986059220766
 20
130.1682155599231
 10
42.86866700580765
 20
130.2277988621431
 10
42.53169719206769
 20
130.2277988621431
 10
42.18367834022766
 20
130.1682155599231
 10
41.83982055194769
 20
130.0516530320631
 10
41.51515205726767
 20
129.8832056194031
 10
41.22386242648767
 20
129.6702352858831
 10
40.97868241900769
 20
129.4220498513431
 10
40.79032757600768
 20
129.149496215603
 10
40.66702990794766
 20
128.8644862750831
  0
LWPOLYLINE
  5
108
330
1B
100
AcDbEntity
  8
0
  6
Continuous
 62
     7
100
AcDbPolyline
 90
        4
 70
     0
 43
0.0
 10
48.18059274210767
 20
133.8335060627031
 10
48.24934461120768
 20
133.6224142522231
 10
48.25976546920765
 20
133.4009405524231
 10
48.21555639582766
 20
133.1727842802631
  0
LINE
  5
10E
330
1B
100
AcDbEntity
  8
0
  6
Continuous
 62
     7
100
AcDbLine
 10
48.21555639582766
 20
133.1727842802631
 30
0.0
 11
47.75799359492768
 21
134.1051992302631
 31
0.0
  0
LINE
  5
10F
330
1B
100
AcDbEntity
  8
0
  6
Continuous
 62
     7
100
AcDbLine
 10
48.18056238402767
 20
133.8335983434431
 30
0.0
 11
47.72299958312766
 21
134.7660132959831
 31
0.0
  0
LWPOLYLINE
  5
110
330
1B
100
AcDbEntity
  8
0
  6
Continuous
 62
     7
100
AcDbPolyline
 90
        9
 70
     0
 43
0.0
 10
39.83154413416767
 20
135.2801895955431
 10
39.55635958166769
 20
135.2578253933831
 10
39.27521791382768
 20
135.1907568026031
 10
39.00404605586769
 20
135.0827795966631
 10
38.74831706770766
 20
134.9360799408631
 10
38.52051944862768
 20
134.7571651856631
 10
38.3310373358477
 20
134.5549297582831
 10
38.18368519468768
 20
134.3334106305831
 10
38.08685315822766
 20
134.1051992302631
  0
LINE
  5
11B
330
1B
100
AcDbEntity
  8
0
  6
Continuous
 62
     7
100
AcDbLine
 10
39.83154413416767
 20
135.2801895955431
 30
0.0
 11
46.73950158822765
 21
135.2801895955431
 31
0.0
  0
LWPOLYLINE
  5
11C
330
1B
100
AcDbEntity
  8
0
  6
Continuous
 62
     7
100
AcDbPolyline
 90
        6
 70
     0
 43
0.0
 10
47.72302994120764
 20
134.7659210127031
 10
47.61011704282767
 20
134.9360058312831
 10
47.44508077396765
 20
135.0827179026031
 10
47.24065952418769
 20
135.1907151491431
 10
47.00092546466765
 20
135.2578144815431
 10
46.73950158822765
 20
135.2801895955431
  0
CIRCLE
  5
124
330
1B
100
AcDbEntity
  8
0
  6
Continuous
 62
     7
100
AcDbCircle
 10
-39.9723402328523
 20
26.20412111870311
 30
0.0
 40
1.750000000119999
  0
CIRCLE
  5
125
330
1B
100
AcDbEntity
  8
0
  6
Continuous
 62
     7
100
AcDbCircle
 10
-72.97234023221233
 20
26.20412111870311
 30
0.0
 40
1.750000000119999
  0
ARC
  5
126
330
1B
100
AcDbEntity
  8
0
  6
Continuous
 62
     7
100
AcDbCircle
 10
-34.47234023211232
 20
29.7041211189431
 30
0.0
 40
1.499999999739999
100
AcDbArc
 50
0.0
 51
90.00000000000019
  0
ARC
  5
127
330
1B
100
AcDbEntity
  8
0
  6
Continuous
 62
     7
100
AcDbCircle
 10
-34.47234023211232
 20
22.2041211177031
 30
0.0
 40
1.499999999739999
100
AcDbArc
 50
270.0000000000006
 51
0.0000000000008014
  0
ARC
  5
128
330
1B
100
AcDbEntity
  8
0
  6
Continuous
 62
     7
100
AcDbCircle
 10
-78.47234023295232
 20
29.7041211189431
 30
0.0
 40
1.499999999739999
100
AcDbArc
 50
90.00000000000019
 51
180.0000000000004
  0
ARC
  5
129
330
1B
100
AcDbEntity
  8
0
  6
Continuous
 62
     7
100
AcDbCircle
 10
-78.47234023295232
 20
22.2041211177031
 30
0.0
 40
1.499999999739999
100
AcDbArc
 50
180.0000000000004
 51
270.0000000000006
  0
ARC
  5
12A
330
1B
100
AcDbEntity
  8
0
  6
Continuous
 62
     7
100
AcDbCircle
 10
-34.47234023211232
 20
133.2068467343631
 30
0.0
 40
1.499999999739999
100
AcDbArc
 50
270.0000000000006
 51
0.0000000000008014
  0
ARC
  5
12B
330
1B
100
AcDbEntity
  8
0
  6
Continuous
 62
     7
100
AcDbCircle
 10
-34.47234023211232
 20
140.7068467356031
 30
0.0
 40
1.499999999739999
100
AcDbArc
 50
0.0
 51
90.00000000000019
  0
ARC
  5
12C
330
1B
100
AcDbEntity
  8
0
  6
Continuous
 62
     7
100
AcDbCircle
 10
-78.47234023295232
 20
133.2068467343631
 30
0.0
 40
1.499999999739999
100
AcDbArc
 50
180.0000000000004
 51
270.0000000000006
  0
ARC
  5
12D
330
1B
100
AcDbEntity
  8
0
  6
Continuous
 62
     7
100
AcDbCircle
 10
-78.47234023295232
 20
140.7068467356031
 30
0.0
 40
1.499999999739999
100
AcDbArc
 50
90.00000000000019
 51
180.0000000000004
  0
CIRCLE
  5
12E
330
1B
100
AcDbEntity
  8
0
  6
Continuous
 62
     7
100
AcDbCircle
 10
-39.9723402328523
 20
136.7068467346031
 30
0.0
 40
1.750000000119999
  0
CIRCLE
  5
12F
330
1B
100
AcDbEntity
  8
0
  6
Continuous
 62
     7
100
AcDbCircle
 10
-72.97234023221233
 20
136.7068467346031
 30
0.0
 40
1.750000000119999
  0
MTEXT
  5
207
330
1B
100
AcDbEntity
  8
0
 62
     1
100
AcDbMText
 10
-61.43123627506679
 20
-5.786033826468781
 30
0.0
 40
5.0
 41
48.92867281806275
 71
     1
 72
     5
  1
USB{\fSimSun|b0|i0|c134|p2;板}
 73
     1
 44
1.0
1001
ACAD
1000
MTEXTBEGIN
1070
    73
1070
     1
1070
    44
1040
1.0
1070
    74
1070
     0
1000
MTEXTEND
  0
ENDSEC
  0
SECTION
  2
OBJECTS
  0
DICTIONARY
  5
130
330
0
100
AcDbDictionary
281
     1
  3
ACAD_COLOR
350
1FA
  3
ACAD_GROUP
350
131
  3
ACAD_LAYOUT
350
1FF
  3
ACAD_MATERIAL
350
1E5
  3
ACAD_MLINESTYLE
350
132
  3
ACAD_PLOTSETTINGS
350
1FE
  3
ACAD_PLOTSTYLENAME
350
1E3
  3
ACAD_TABLESTYLE
350
1FB
  3
ACAD_VISUALSTYLE
350
1E9
  3
AcDbVariableDictionary
350
20C
  3
ASE_INDEX_DICTIONARY
350
209
  3
DWGPROPS
350
216
  3
lxx_dict
350
204
  0
DICTIONARY
  5
1FA
102
{ACAD_REACTORS
330
130
102
}
330
130
100
AcDbDictionary
281
     1
  0
DICTIONARY
  5
131
102
{ACAD_REACTORS
330
130
102
}
330
130
100
AcDbDictionary
281
     1
  0
DICTIONARY
  5
1FF
102
{ACAD_REACTORS
330
130
102
}
330
130
100
AcDbDictionary
281
     1
  3
Model
350
200
  3
布局1
350
201
  0
DICTIONARY
  5
1E5
102
{ACAD_REACTORS
330
130
102
}
330
130
100
AcDbDictionary
281
     1
  3
ByBlock
350
1E7
  3
ByLayer
350
1E6
  3
Global
350
1E8
  0
DICTIONARY
  5
132
102
{ACAD_REACTORS
330
130
102
}
330
130
100
AcDbDictionary
281
     1
  3
STANDARD
350
133
  0
DICTIONARY
  5
1FE
102
{ACAD_REACTORS
330
130
102
}
330
130
100
AcDbDictionary
281
     1
  0
ACDBDICTIONARYWDFLT
  5
1E3
102
{ACAD_REACTORS
330
130
102
}
330
130
100
AcDbDictionary
281
     1
  3
Normal
350
1E4
100
AcDbDictionaryWithDefault
340
1E4
  0
DICTIONARY
  5
1FB
102
{ACAD_REACTORS
330
130
102
}
330
130
100
AcDbDictionary
281
     1
  3
Standard
350
1FC
  0
DICTIONARY
  5
1E9
102
{ACAD_REACTORS
330
130
102
}
330
130
100
AcDbDictionary
281
     1
  3
2dWireframe
350
1EF
  3
3D Hidden
350
1F1
  3
3dWireframe
350
1F0
  3
Basic
350
1EE
  3
Brighten
350
1F5
  3
ColorChange
350
1F9
  3
Conceptual
350
1F2
  3
Dim
350
1F4
  3
Facepattern
350
1F8
  3
Flat
350
1EA
  3
FlatWithEdges
350
1EB
  3
Gouraud
350
1EC
  3
GouraudWithEdges
350
1ED
  3
Linepattern
350
1F7
  3
Realistic
350
1F3
  3
Thicken
350
1F6
  0
DICTIONARY
  5
20C
102
{ACAD_REACTORS
330
130
102
}
330
130
100
AcDbDictionary
281
     1
  3
CTABLESTYLE
350
20D
  3
DIMASSOC
350
215
  3
INDEXCTL
350
214
  3
SORTENTS
350
213
  0
DICTIONARY
  5
209
102
{ACAD_REACTORS
330
130
102
}
330
130
100
AcDbDictionary
281
     1
  3
ASEBlockHierarchyIndexRecord
350
20B
1001
DCO15
1040
1888141363.332
  0
XRECORD
  5
216
102
{ACAD_REACTORS
330
130
102
}
330
130
100
AcDbXrecord
280
     1
  1
DWGPROPS COOKIE
  2

  3

  4

  6

  7

  8
Administrator
  9

300
=
301
=
302
=
303
=
304
=
305
=
306
=
307
=
308
=
309
=
 40
0.0007565740740741
 41
2444972.333333334
 42
2457656.69985338
  1

 90
        0
  0
DICTIONARY
  5
204
102
{ACAD_REACTORS
330
130
102
}
330
130
100
AcDbDictionary
281
     1
  3
lxx_dimth
350
205
  0
LAYOUT
  5
200
102
{ACAD_XDICTIONARY
360
21F
102
}
102
{ACAD_REACTORS
330
1FF
102
}
330
1FF
100
AcDbPlotSettings
  1

  2
Microsoft XPS Document Writer
  4

  6

 40
0.0
 41
0.0
 42
0.0
 43
0.0
 44
0.0
 45
0.0
 46
0.0
 47
0.0
 48
0.0
 49
0.0
140
0.0
141
0.0
142
1.0
143
1.0
 70
  1712
 72
     0
 73
     0
 74
     0
  7

 75
     0
147
1.0
148
0.0
149
0.0
100
AcDbLayout
  1
Model
 70
     1
 71
     0
 10
0.0
 20
0.0
 11
12.0
 21
9.0
 12
0.0
 22
0.0
 32
0.0
 14
0.0
 24
0.0
 34
0.0
 15
0.0
 25
0.0
 35
0.0
146
0.0
 13
0.0
 23
0.0
 33
0.0
 16
1.0
 26
0.0
 36
0.0
 17
0.0
 27
1.0
 37
0.0
 76
     0
330
1B
331
18
  0
LAYOUT
  5
201
102
{ACAD_XDICTIONARY
360
221
102
}
102
{ACAD_REACTORS
330
1FF
102
}
330
1FF
100
AcDbPlotSettings
  1

  2
Microsoft XPS Document Writer
  4

  6

 40
0.0
 41
0.0
 42
0.0
 43
0.0
 44
0.0
 45
0.0
 46
0.0
 47
0.0
 48
0.0
 49
0.0
140
0.0
141
0.0
142
1.0
143
1.0
 70
   688
 72
     0
 73
     0
 74
     5
  7

 75
    16
147
1.0
148
0.0
149
0.0
100
AcDbLayout
  1
布局1
 70
     0
 71
     1
 10
0.0
 20
0.0
 11
12.0
 21
9.0
 12
0.0
 22
0.0
 32
0.0
 14
1.000000000000000E+20
 24
1.000000000000000E+20
 34
1.000000000000000E+20
 15
-1.000000000000000E+20
 25
-1.000000000000000E+20
 35
-1.000000000000000E+20
146
0.0
 13
0.0
 23
0.0
 33
0.0
 16
1.0
 26
0.0
 36
0.0
 17
0.0
 27
1.0
 37
0.0
 76
     0
330
1C
  0
MATERIAL
  5
1E7
102
{ACAD_XDICTIONARY
360
219
102
}
102
{ACAD_REACTORS
330
1E5
102
}
330
1E5
100
AcDbMaterial
  1
ByBlock
  0
MATERIAL
  5
1E6
102
{ACAD_XDICTIONARY
360
217
102
}
102
{ACAD_REACTORS
330
1E5
102
}
330
1E5
100
AcDbMaterial
  1
ByLayer
  0
MATERIAL
  5
1E8
102
{ACAD_XDICTIONARY
360
21B
102
}
102
{ACAD_REACTORS
330
1E5
102
}
330
1E5
100
AcDbMaterial
  1
Global
  0
MLINESTYLE
  5
133
102
{ACAD_REACTORS
330
132
102
}
330
132
100
AcDbMlineStyle
  2
STANDARD
 70
     0
  3

 62
     0
 51
90.00000000000019
 52
90.00000000000019
 71
     2
 49
0.5
 62
   256
  6
BYLAYER
 49
-0.5
 62
   256
  6
BYLAYER
  0
ACDBPLACEHOLDER
  5
1E4
102
{ACAD_REACTORS
330
1E3
102
}
330
1E3
  0
TABLESTYLE
  5
1FC
102
{ACAD_XDICTIONARY
360
21D
102
}
102
{ACAD_REACTORS
330
1FB
102
}
330
1FB
100
AcDbTableStyle
  3
Standard
 70
     0
 71
     0
 40
0.06
 41
0.06
280
     0
281
     0
  7
STANDARD
140
0.18
170
     2
 62
     0
 63
     7
283
     0
274
    -2
284
     1
 64
     0
275
    -2
285
     1
 65
     0
276
    -2
286
     1
 66
     0
277
    -2
287
     1
 67
     0
278
    -2
288
     1
 68
     0
279
    -2
289
     1
 69
     0
  7
STANDARD
140
0.25
170
     5
 62
     0
 63
     7
283
     0
274
    -2
284
     1
 64
     0
275
    -2
285
     1
 65
     0
276
    -2
286
     1
 66
     0
277
    -2
287
     1
 67
     0
278
    -2
288
     1
 68
     0
279
    -2
289
     1
 69
     0
  7
STANDARD
140
0.18
170
     5
 62
     0
 63
     7
283
     0
274
    -2
284
     1
 64
     0
275
    -2
285
     1
 65
     0
276
    -2
286
     1
 66
     0
277
    -2
287
     1
 67
     0
278
    -2
288
     1
 68
     0
279
    -2
289
     1
 69
     0
  0
VISUALSTYLE
  5
1EF
102
{ACAD_REACTORS
330
1E9
102
}
330
1E9
100
AcDbVisualStyle
  2
2dWireframe
 70
     4
 71
     0
 72
     2
 73
     0
 90
        0
 40
-0.6
 41
-30.0
 62
     5
 63
     7
 74
     1
 91
        4
 64
     7
 65
   257
 75
     1
175
     1
 42
1.0
 92
        0
 66
   257
 43
1.0
 76
     1
 77
     6
 78
     2
 67
     7
 79
     5
170
     0
171
     0
290
     0
174
     0
 93
        1
 44
0.0
173
     0
291
     0
 45
0.0
1001
ACAD
1000
AcDbSavedByObjectVersion
1070
     0
  0
VISUALSTYLE
  5
1F1
102
{ACAD_REACTORS
330
1E9
102
}
330
1E9
100
AcDbVisualStyle
  2
3D Hidden
 70
     6
 71
     1
 72
     2
 73
     2
 90
        0
 40
-0.6
 41
-30.0
 62
     5
 63
     7
 74
     2
 91
        2
 64
     7
 65
   257
 75
     2
175
     1
 42
40.0
 92
        0
 66
   257
 43
1.0
 76
     1
 77
     6
 78
     2
 67
     7
 79
     3
170
     0
171
     0
290
     0
174
     0
 93
        1
 44
0.0
173
     0
291
     0
 45
0.0
1001
ACAD
1000
AcDbSavedByObjectVersion
1070
     0
  0
VISUALSTYLE
  5
1F0
102
{ACAD_REACTORS
330
1E9
102
}
330
1E9
100
AcDbVisualStyle
  2
3dWireframe
 70
     5
 71
     0
 72
     2
 73
     0
 90
        0
 40
-0.6
 41
-30.0
 62
     5
 63
     7
 74
     1
 91
        4
 64
     7
 65
   257
 75
     1
175
     1
 42
1.0
 92
        0
 66
   257
 43
1.0
 76
     1
 77
     6
 78
     2
 67
     7
 79
     5
170
     0
171
     0
290
     0
174
     0
 93
        1
 44
0.0
173
     0
291
     0
 45
0.0
1001
ACAD
1000
AcDbSavedByObjectVersion
1070
     0
  0
VISUALSTYLE
  5
1EE
102
{ACAD_REACTORS
330
1E9
102
}
330
1E9
100
AcDbVisualStyle
  2
Basic
 70
     7
 71
     1
 72
     0
 73
     1
 90
        0
 40
-0.6
 41
-30.0
 62
     5
 63
     7
 74
     0
 91
        4
 64
     7
 65
   257
 75
     1
175
     1
 42
1.0
 92
        8
 66
     7
 43
1.0
 76
     1
 77
     6
 78
     2
 67
     7
 79
     5
170
     0
171
     0
290
     0
174
     0
 93
        1
 44
0.0
173
     0
291
     1
 45
0.0
1001
ACAD
1000
AcDbSavedByObjectVersion
1070
     0
  0
VISUALSTYLE
  5
1F5
102
{ACAD_REACTORS
330
1E9
102
}
330
1E9
100
AcDbVisualStyle
  2
Brighten
 70
    12
 71
     2
 72
     2
 73
     0
 90
        0
 40
-0.6
 41
-30.0
 62
     5
 63
     7
 74
     1
 91
        4
 64
     7
 65
   257
 75
     1
175
     1
 42
1.0
 92
        8
 66
     7
 43
1.0
 76
     1
 77
     6
 78
     2
 67
     7
 79
     5
170
     0
171
     0
290
     0
174
     0
 93
        1
 44
50.0
173
     0
291
     1
 45
0.0
1001
ACAD
1000
AcDbSavedByObjectVersion
1070
     0
  0
VISUALSTYLE
  5
1F9
102
{ACAD_REACTORS
330
1E9
102
}
330
1E9
100
AcDbVisualStyle
  2
ColorChange
 70
    16
 71
     2
 72
     2
 73
     3
 90
        0
 40
-0.6
 41
-30.0
 62
     5
 63
     8
 74
     1
 91
        4
 64
     7
 65
   257
 75
     1
175
     1
 42
1.0
 92
        8
 66
     8
 43
1.0
 76
     1
 77
     6
 78
     2
 67
     7
 79
     5
170
     0
171
     0
290
     0
174
     0
 93
        1
 44
0.0
173
     0
291
     1
 45
0.0
1001
ACAD
1000
AcDbSavedByObjectVersion
1070
     0
  0
VISUALSTYLE
  5
1F2
102
{ACAD_REACTORS
330
1E9
102
}
330
1E9
100
AcDbVisualStyle
  2
Conceptual
 70
     9
 71
     3
 72
     2
 73
     0
 90
        0
 40
-0.6
 41
-30.0
 62
     5
 63
     7
 74
     2
 91
        2
 64
     7
 65
   257
 75
     1
175
     1
 42
40.0
 92
        8
 66
     7
 43
1.0
 76
     1
 77
     6
 78
     2
 67
     7
 79
     3
170
     0
171
     0
290
     0
174
     0
 93
        1
 44
0.0
173
     0
291
     0
 45
0.0
1001
ACAD
1000
AcDbSavedByObjectVersion
1070
     0
  0
VISUALSTYLE
  5
1F4
102
{ACAD_REACTORS
330
1E9
102
}
330
1E9
100
AcDbVisualStyle
  2
Dim
 70
    11
 71
     2
 72
     2
 73
     0
 90
        0
 40
-0.6
 41
-30.0
 62
     5
 63
     7
 74
     1
 91
        4
 64
     7
 65
   257
 75
     1
175
     1
 42
1.0
 92
        8
 66
     7
 43
1.0
 76
     1
 77
     6
 78
     2
 67
     7
 79
     5
170
     0
171
     0
290
     0
174
     0
 93
        1
 44
-50.0
173
     0
291
     1
 45
0.0
1001
ACAD
1000
AcDbSavedByObjectVersion
1070
     0
  0
VISUALSTYLE
  5
1F8
102
{ACAD_REACTORS
330
1E9
102
}
330
1E9
100
AcDbVisualStyle
  2
Facepattern
 70
    15
 71
     2
 72
     2
 73
     0
 90
        0
 40
-0.6
 41
-30.0
 62
     5
 63
     7
 74
     1
 91
        4
 64
     7
 65
   257
 75
     1
175
     1
 42
1.0
 92
        8
 66
     7
 43
1.0
 76
     1
 77
     6
 78
     2
 67
     7
 79
     5
170
     0
171
     0
290
     0
174
     0
 93
        1
 44
0.0
173
     0
291
     1
 45
0.0
1001
ACAD
1000
AcDbSavedByObjectVersion
1070
     0
  0
VISUALSTYLE
  5
1EA
102
{ACAD_REACTORS
330
1E9
102
}
330
1E9
100
AcDbVisualStyle
  2
Flat
 70
     0
 71
     2
 72
     1
 73
     1
 90
        2
 40
-0.6
 41
30.0
 62
     5
 63
     7
 74
     0
 91
        4
 64
     7
 65
   257
 75
     1
175
     1
 42
1.0
 92
        8
 66
     7
 43
1.0
 76
     1
 77
     6
 78
     2
 67
     7
 79
     5
170
     0
171
     0
290
     0
174
     0
 93
       13
 44
0.0
173
     0
291
     1
 45
0.0
1001
ACAD
1000
AcDbSavedByObjectVersion
1070
     0
  0
VISUALSTYLE
  5
1EB
102
{ACAD_REACTORS
330
1E9
102
}
330
1E9
100
AcDbVisualStyle
  2
FlatWithEdges
 70
     1
 71
     2
 72
     1
 73
     1
 90
        2
 40
-0.6
 41
30.0
 62
     5
 63
     7
 74
     1
 91
        4
 64
     7
 65
   257
 75
     1
175
     1
 42
1.0
 92
        0
 66
   257
 43
1.0
 76
     1
 77
     6
 78
     2
 67
     7
 79
     5
170
     0
171
     0
290
     0
174
     0
 93
       13
 44
0.0
173
     0
291
     1
 45
0.0
1001
ACAD
1000
AcDbSavedByObjectVersion
1070
     0
  0
VISUALSTYLE
  5
1EC
102
{ACAD_REACTORS
330
1E9
102
}
330
1E9
100
AcDbVisualStyle
  2
Gouraud
 70
     2
 71
     2
 72
     2
 73
     1
 90
        2
 40
-0.6
 41
30.0
 62
     5
 63
     7
 74
     0
 91
        4
 64
     7
 65
   257
 75
     1
175
     1
 42
1.0
 92
        0
 66
     7
 43
1.0
 76
     1
 77
     6
 78
     2
 67
     7
 79
     5
170
     0
171
     0
290
     0
174
     0
 93
       13
 44
0.0
173
     0
291
     1
 45
0.0
1001
ACAD
1000
AcDbSavedByObjectVersion
1070
     0
  0
VISUALSTYLE
  5
1ED
102
{ACAD_REACTORS
330
1E9
102
}
330
1E9
100
AcDbVisualStyle
  2
GouraudWithEdges
 70
     3
 71
     2
 72
     2
 73
     1
 90
        2
 40
-0.6
 41
30.0
 62
     5
 63
     7
 74
     1
 91
        4
 64
     7
 65
   257
 75
     1
175
     1
 42
1.0
 92
        0
 66
   257
 43
1.0
 76
     1
 77
     6
 78
     2
 67
     7
 79
     5
170
     0
171
     0
290
     0
174
     0
 93
       13
 44
0.0
173
     0
291
     1
 45
0.0
1001
ACAD
1000
AcDbSavedByObjectVersion
1070
     0
  0
VISUALSTYLE
  5
1F7
102
{ACAD_REACTORS
330
1E9
102
}
330
1E9
100
AcDbVisualStyle
  2
Linepattern
 70
    14
 71
     2
 72
     2
 73
     0
 90
        0
 40
-0.6
 41
-30.0
 62
     5
 63
     7
 74
     1
 91
        4
 64
     7
 65
   257
 75
     7
175
     7
 42
1.0
 92
        8
 66
     7
 43
1.0
 76
     1
 77
     6
 78
     2
 67
     7
 79
     5
170
     0
171
     0
290
     0
174
     0
 93
        1
 44
0.0
173
     0
291
     1
 45
0.0
1001
ACAD
1000
AcDbSavedByObjectVersion
1070
     0
  0
VISUALSTYLE
  5
1F3
102
{ACAD_REACTORS
330
1E9
102
}
330
1E9
100
AcDbVisualStyle
  2
Realistic
 70
     8
 71
     2
 72
     2
 73
     0
 90
        0
 40
-0.6
 41
-30.0
 62
     5
 63
     7
 74
     1
 91
        0
 64
     7
 65
   257
 75
     1
175
     1
 42
1.0
 92
        8
 66
     8
 43
1.0
 76
     1
 77
     6
 78
     2
 67
     7
 79
     5
170
     0
171
     0
290
     0
174
     0
 93
       13
 44
0.0
173
     0
291
     0
 45
0.0
1001
ACAD
1000
AcDbSavedByObjectVersion
1070
     0
  0
VISUALSTYLE
  5
1F6
102
{ACAD_REACTORS
330
1E9
102
}
330
1E9
100
AcDbVisualStyle
  2
Thicken
 70
    13
 71
     2
 72
     2
 73
     0
 90
        0
 40
-0.6
 41
-30.0
 62
     5
 63
     7
 74
     1
 91
        4
 64
     7
 65
   257
 75
     1
175
     1
 42
1.0
 92
       12
 66
     7
 43
1.0
 76
     1
 77
     6
 78
     2
 67
     7
 79
     5
170
     0
171
     0
290
     0
174
     0
 93
        1
 44
0.0
173
     0
291
     1
 45
0.0
1001
ACAD
1000
AcDbSavedByObjectVersion
1070
     0
  0
DICTIONARYVAR
  5
20D
102
{ACAD_REACTORS
330
20C
102
}
330
20C
100
DictionaryVariables
280
     0
  1
STANDARD
  0
DICTIONARYVAR
  5
215
102
{ACAD_REACTORS
330
20C
102
}
330
20C
100
DictionaryVariables
280
     0
  1
1
  0
DICTIONARYVAR
  5
214
102
{ACAD_REACTORS
330
20C
102
}
330
20C
100
DictionaryVariables
280
     0
  1
0
  0
DICTIONARYVAR
  5
213
102
{ACAD_REACTORS
330
20C
102
}
330
20C
100
DictionaryVariables
280
     0
  1
127
  0
XRECORD
  5
20B
102
{ACAD_REACTORS
330
209
102
}
330
209
100
AcDbXrecord
280
     1
  0
VLO-VL
  5
205
102
{ACAD_REACTORS
330
204
102
}
330
204
100
vlo_VL
 90
   -64512
 91
       12
 92
        1
 40
2.5
300
(&VLO-R . 0)
  0
DICTIONARY
  5
21F
330
200
100
AcDbDictionary
280
     1
281
     1
  3
ACAD_XREC_ROUNDTRIP
360
220
  0
DICTIONARY
  5
221
330
201
100
AcDbDictionary
280
     1
281
     1
  3
ACAD_XREC_ROUNDTRIP
360
222
  0
DICTIONARY
  5
219
330
1E7
100
AcDbDictionary
280
     1
281
     1
  3
ACAD_XREC_ROUNDTRIP
360
21A
  0
DICTIONARY
  5
217
330
1E6
100
AcDbDictionary
280
     1
281
     1
  3
ACAD_XREC_ROUNDTRIP
360
218
  0
DICTIONARY
  5
21B
330
1E8
100
AcDbDictionary
280
     1
281
     1
  3
ACAD_XREC_ROUNDTRIP
360
21C
  0
DICTIONARY
  5
21D
330
1FC
100
AcDbDictionary
280
     1
281
     1
  3
ACAD_XREC_ROUNDTRIP
360
21E
  0
XRECORD
  5
220
102
{ACAD_REACTORS
330
21F
102
}
330
21F
100
AcDbXrecord
280
     1
102
SHADEPLOT
 70
     0
102
SHADEPLOTRESLEVEL
 70
     2
102
SHADEPLOTCUSTOMDPI
 70
   300
  0
XRECORD
  5
222
102
{ACAD_REACTORS
330
221
102
}
330
221
100
AcDbXrecord
280
     1
102
SHADEPLOT
 70
     0
102
SHADEPLOTRESLEVEL
 70
     2
102
SHADEPLOTCUSTOMDPI
 70
   300
  0
XRECORD
  5
21A
102
{ACAD_REACTORS
330
219
102
}
330
219
100
AcDbXrecord
280
     1
102
MATERIAL
148
0.0
149
0.0
149
0.0
 93
        0
 94
       63
282
     0
 72
     1
 77
     1
171
     1
175
     1
179
     1
273
     0
  0
XRECORD
  5
218
102
{ACAD_REACTORS
330
217
102
}
330
217
100
AcDbXrecord
280
     1
102
MATERIAL
148
0.0
149
0.0
149
0.0
 93
        0
 94
       63
282
     0
 72
     1
 77
     1
171
     1
175
     1
179
     1
273
     0
  0
XRECORD
  5
21C
102
{ACAD_REACTORS
330
21B
102
}
330
21B
100
AcDbXrecord
280
     1
102
MATERIAL
148
0.0
149
0.0
149
0.0
 93
        0
 94
       63
282
     0
 72
     1
 77
     1
171
     1
175
     1
179
     1
273
     0
  0
XRECORD
  5
21E
102
{ACAD_REACTORS
330
21D
102
}
330
21D
100
AcDbXrecord
280
     1
102
ACAD_ROUNDTRIP_PRE2007_TABLESTYLE
 90
      512
 91
        0
  1

 92
      512
 93
        0
  2

 94
      512
 95
        0
  3

  0
ENDSEC
  0
EOF
